<svg width="24" height="24" viewBox="0 0 24 24" fill="none" xmlns="http://www.w3.org/2000/svg">
<path opacity="0.4" d="M17.0365 0H6.97548C2.6053 0 0 2.604 0 6.972V17.016C0 21.396 2.6053 24 6.97548 24H17.0245C21.3947 24 24 21.396 24 17.028V6.972C24.012 2.604 21.4067 0 17.0365 0Z" fill="#292D32"/>
<path d="M13.2779 12.0001L16.0393 9.24015C16.3874 8.89215 16.3874 8.31615 16.0393 7.96815C15.6911 7.62015 15.1148 7.62015 14.7666 7.96815L12.0052 10.7281L9.24384 7.96815C8.89566 7.62015 8.31937 7.62015 7.97121 7.96815C7.62304 8.31615 7.62304 8.89215 7.97121 9.24015L10.7326 12.0001L7.97121 14.7601C7.62304 15.1081 7.62304 15.6841 7.97121 16.0321C8.1513 16.2121 8.3794 16.2961 8.60752 16.2961C8.83563 16.2961 9.06375 16.2121 9.24384 16.0321L12.0052 13.2721L14.7666 16.0321C14.9467 16.2121 15.1748 16.2961 15.4029 16.2961C15.6311 16.2961 15.8592 16.2121 16.0393 16.0321C16.3874 15.6841 16.3874 15.1081 16.0393 14.7601L13.2779 12.0001Z" fill="white"/>
</svg>
