<svg width="24" height="24" viewBox="0 0 24 24" fill="none" xmlns="http://www.w3.org/2000/svg">
<path d="M15.171 24.0005H8.55094C2.55976 24.0005 0 21.4407 0 15.4495V8.82947C0 2.8383 2.55976 0.278534 8.55094 0.278534H10.7576C11.21 0.278534 11.5851 0.653672 11.5851 1.10604C11.5851 1.55842 11.21 1.93355 10.7576 1.93355H8.55094C3.46451 1.93355 1.65502 3.74304 1.65502 8.82947V15.4495C1.65502 20.536 3.46451 22.3455 8.55094 22.3455H15.171C20.2574 22.3455 22.0669 20.536 22.0669 15.4495V13.2429C22.0669 12.7905 22.4421 12.4153 22.8944 12.4153C23.3468 12.4153 23.722 12.7905 23.722 13.2429V15.4495C23.722 21.4407 21.1622 24.0005 15.171 24.0005Z" fill="white"/>
<path d="M7.99853 18.4177C7.32549 18.4177 6.70762 18.1749 6.25525 17.7336C5.71461 17.1929 5.4829 16.4096 5.60427 15.5821L6.07871 12.261C6.16698 11.621 6.58625 10.7935 7.03862 10.3412L15.7329 1.64675C17.9286 -0.548915 20.1574 -0.548915 22.353 1.64675C23.5557 2.84939 24.0963 4.07411 23.986 5.29882C23.8867 6.29183 23.3571 7.26278 22.353 8.25579L13.6586 16.9502C13.2063 17.4026 12.3788 17.8219 11.7388 17.9101L8.41781 18.3846C8.27437 18.4177 8.13093 18.4177 7.99853 18.4177ZM16.9025 2.81629L8.20817 11.5107C7.99853 11.7203 7.7558 12.2058 7.71166 12.4927L7.23722 15.8138C7.19309 16.1337 7.25929 16.3985 7.42479 16.564C7.5903 16.7295 7.8551 16.7957 8.17507 16.7516L11.4961 16.2772C11.783 16.233 12.2795 15.9903 12.4781 15.7807L21.1724 7.08624C21.8896 6.36907 22.2647 5.72913 22.3199 5.13332C22.3861 4.41615 22.011 3.65484 21.1724 2.80526C19.4071 1.0399 18.1934 1.53641 16.9025 2.81629Z" fill="white"/>
<path d="M20.5218 9.74501C20.4446 9.74501 20.3674 9.73397 20.3011 9.71191C17.3993 8.89543 15.0934 6.58944 14.2769 3.68763C14.1555 3.2463 14.4093 2.79392 14.8506 2.66152C15.292 2.54015 15.7443 2.79392 15.8657 3.23526C16.5277 5.58539 18.3924 7.45005 20.7425 8.11205C21.1838 8.23342 21.4376 8.69683 21.3162 9.13817C21.2169 9.5133 20.8859 9.74501 20.5218 9.74501Z" fill="white"/>
</svg>
